<svg xmlns="http://www.w3.org/2000/svg" xmlns:xlink="http://www.w3.org/1999/xlink" viewBox="0 0 16 16" id="database"><defs><linearGradient id="a"><stop offset="0" stop-color="#000092"></stop><stop offset="1" stop-color="#ff00f3"></stop></linearGradient><linearGradient id="b" x1="2" x2="14.008" y1="7.75" y2="7.75" gradientUnits="userSpaceOnUse" xlink:href="#a"></linearGradient></defs><path fill="url(#b)" d="M2.91 1.5a.911.911 0 0 0-.91.91v2.68a.9.9 0 0 0 .293.66.9.9 0 0 0-.293.66v2.68a.9.9 0 0 0 .293.66.9.9 0 0 0-.293.66v2.68c0 .502.408.91.91.91h11.68c.502 0 .91-.408.91-.91v-2.68a.9.9 0 0 0-.293-.66.9.9 0 0 0 .293-.66V6.41a.9.9 0 0 0-.293-.66.9.9 0 0 0 .293-.66V2.41a.911.911 0 0 0-.91-.91H2.91zm0 .5h11.68a.41.41 0 0 1 .41.41v2.68a.41.41 0 0 1-.41.41H2.91a.41.41 0 0 1-.41-.41V2.41A.41.41 0 0 1 2.91 2Zm10.34 1.45a.3.3 0 1 0 0 .601.3.3 0 0 0 0-.602Zm-9.5.05V4h4v-.5h-4zm9.5.05a.2.2 0 1 1 0 .4.2.2 0 0 1 0-.4ZM2.91 6h11.68a.41.41 0 0 1 .41.41v2.68a.41.41 0 0 1-.41.41H2.91a.41.41 0 0 1-.41-.41V6.41A.41.41 0 0 1 2.91 6Zm10.361 1.45a.3.3 0 0 0 0 .6.3.3 0 0 0 .3-.3.3.3 0 0 0-.3-.3zM3.75 7.5V8h4v-.5h-4zm9.521.05a.2.2 0 1 1 0 .398.2.2 0 0 1-.2-.198c0-.11.09-.2.2-.2zM2.911 10H14.59a.41.41 0 0 1 .41.41v2.68a.41.41 0 0 1-.41.41H2.91a.41.41 0 0 1-.41-.41v-2.68a.41.41 0 0 1 .41-.41Zm10.333 1.45a.3.3 0 1 0 0 .601.3.3 0 0 0 0-.602zm-9.494.05v.5h4v-.5h-4zm9.494.05a.2.2 0 1 1 0 .4.2.2 0 0 1 0-.4z"></path></svg>