<svg xmlns="http://www.w3.org/2000/svg" xmlns:xlink="http://www.w3.org/1999/xlink" viewBox="0 0 16 16" id="Database"><defs><linearGradient id="a"><stop offset="0" stop-color="#8526fe" class="stopColor000092 svgShape"></stop><stop offset="1" stop-color="#ad59d4" class="stopColorff00f3 svgShape"></stop></linearGradient><linearGradient id="b" x1=".014" x2="14" y1="8.502" y2="8.502" gradientUnits="userSpaceOnUse" xlink:href="#a"></linearGradient></defs><path fill="url(#b)" d="M12.486 1.004A3.493 3.493 0 0 0 9.34 2.998H1.176C.535 2.998.014 3.52.014 4.16v2.678c0 .25.096.47.232.66-.136.19-.232.411-.232.662v2.678c0 .25.096.47.232.66-.136.19-.232.411-.232.662v2.678C.014 15.48.534 16 1.176 16h11.678c.64 0 1.16-.52 1.16-1.16v-2.68c0-.25-.097-.47-.233-.66.136-.19.233-.41.233-.66V8.16a1.14 1.14 0 0 0-.102-.467 3.499 3.499 0 0 0 2.074-3.19c0-1.93-1.57-3.5-3.5-3.5zm0 1c1.38 0 2.5 1.12 2.5 2.5A2.5 2.5 0 0 1 12.526 7h-.079a2.5 2.5 0 0 1 .04-4.996zm-.48 1.012V4.4l-.674-.632-.686.728 1.516 1.426a.505.505 0 0 0 .692-.006l1.476-1.424-.693-.72-.631.607V3.016h-1zM1.176 4h7.861c-.024.166-.05.33-.05.504 0 .978.403 1.86 1.052 2.496H1.176a.161.161 0 0 1-.162-.16V4.16c0-.089.073-.16.162-.16zm.838 1v1h4V5h-4zm-.838 3h11.271c.013 0 .025.004.04.004.013 0 .024-.004.038-.004h.329c.089 0 .162.071.162.16v2.68c0 .089-.073.16-.162.16H1.176a.161.161 0 0 1-.162-.16V8.16c0-.089.073-.16.162-.16zm10.857.95L10.984 9l.05 1.05h.5l.552-.05-.053-1.05zM2.013 9v1h4V9h-4zm-.837 3h11.678a.16.16 0 0 1 .16.16v2.68a.16.16 0 0 1-.16.16H1.176a.161.161 0 0 1-.162-.16v-2.68c0-.089.073-.16.162-.16Zm10.832.95-1.051.05.05 1.05h.5l.552-.05-.051-1.05ZM2.014 13v1h4v-1h-4z"></path></svg>